<?xml version="1.0" encoding="utf-8"?>
<!-- Generator: Adobe Illustrator 26.0.1, SVG Export Plug-In . SVG Version: 6.00 Build 0)  -->
<svg version="1.1" id="Layer_1" xmlns="http://www.w3.org/2000/svg" xmlns:xlink="http://www.w3.org/1999/xlink" x="0px" y="0px"
	 viewBox="0 0 1000 1000" style="enable-background:new 0 0 1000 1000;" xml:space="preserve">
<style type="text/css">
	.st0{fill:#FFFFFF;}
	.st1{fill:#414042;}
	.st2{fill:#F15A29;}
</style>
<rect x="321.43" y="105.45" width="311.8" height="289.06"/>
<path class="st0" d="M399.4,166.17v67.13h121.28v47.17H399.4V373h-60.64V119h198.01v47.17H399.4z"/>
<path class="st0" d="M606.25,372.15H418.32v-47.62h128.59V119.6h59.35V372.15z"/>
<g>
	<g>
		<g>
		</g>
	</g>
</g>
<path class="st1" d="M164.57,457.74v27.43h48.03v19.27h-48.03v37.8h-24.02V438.46h78.43v19.27H164.57z"/>
<path class="st1" d="M302,496.73v45.51h-21.65v-9.93c-4.3,7.26-12.6,11.12-24.31,11.12c-18.68,0-29.8-10.38-29.8-24.17
	c0-14.08,9.93-23.87,34.25-23.87h18.38c0-9.93-5.93-15.71-18.38-15.71c-8.45,0-17.2,2.82-22.98,7.41l-8.3-16.16
	c8.75-6.23,21.65-9.64,34.4-9.64C287.92,461.29,302,472.56,302,496.73z M278.88,517.04v-8.15h-15.86c-10.82,0-14.23,4-14.23,9.34
	c0,5.78,4.89,9.64,13.05,9.64C269.54,527.86,276.21,524.3,278.88,517.04z"/>
<path class="st1" d="M409.78,502.36c0,25.06-17.35,41.07-39.73,41.07c-10.67,0-19.27-3.41-25.06-10.38v9.19h-22.09v-110h23.13v38.69
	c5.93-6.52,14.08-9.64,24.02-9.64C392.44,461.29,409.78,477.31,409.78,502.36z M386.36,502.36c0-13.79-8.75-22.09-20.31-22.09
	s-20.31,8.3-20.31,22.09c0,13.79,8.75,22.09,20.31,22.09S386.36,516.15,386.36,502.36z"/>
<path class="st1" d="M474.72,461.29v21.35c-1.93-0.15-3.41-0.3-5.19-0.3c-12.75,0-21.2,6.97-21.2,22.24v37.66H425.2v-79.76h22.09
	v10.53C452.93,465.3,462.41,461.29,474.72,461.29z"/>
<path class="st2" d="M487.38,439.46c0-6.41,5.1-11.38,12.69-11.38s12.69,4.71,12.69,10.99c0,6.8-5.1,11.78-12.69,11.78
	S487.38,445.87,487.38,439.46z"/>
<rect x="488.51" y="462.48" class="st1" width="23.13" height="79.76"/>
<path class="st1" d="M533.13,432.24h23.13v110h-23.13V432.24z"/>
<path class="st1" d="M571.83,502.36c0-24.02,18.53-41.07,43.88-41.07c25.35,0,43.74,17.05,43.74,41.07
	c0,24.02-18.38,41.07-43.74,41.07C590.36,543.43,571.83,526.38,571.83,502.36z M636.02,502.36c0-13.79-8.75-22.09-20.31-22.09
	c-11.56,0-20.46,8.3-20.46,22.09c0,13.79,8.9,22.09,20.46,22.09C627.28,524.45,636.02,516.15,636.02,502.36z"/>
<path class="st1" d="M668.94,502.36c0-24.02,18.53-41.07,43.88-41.07c25.35,0,43.73,17.05,43.73,41.07
	c0,24.02-18.38,41.07-43.73,41.07C687.47,543.43,668.94,526.38,668.94,502.36z M733.13,502.36c0-13.79-8.75-22.09-20.31-22.09
	c-11.56,0-20.46,8.3-20.46,22.09c0,13.79,8.9,22.09,20.46,22.09C724.38,524.45,733.13,516.15,733.13,502.36z"/>
<path class="st1" d="M806.22,510.96l-11.12,10.97v20.31h-23.13v-110h23.13v62.27l33.8-32.02h27.58l-33.21,33.8l36.17,45.96h-28.02
	L806.22,510.96z"/>
<g>
	<path class="st2" d="M586.73,550.72c4.95,1,10.32,2.34,15.19,3.61c2.52,0.54,7.5,1.68,10,2.29c17.97,3.8,36.49,6.29,54.74,5.87
		c27.18-0.3,53.18-7.14,79.58-14.34c-8.58,6.1-17.88,11.07-27.55,15.25C675.39,581.92,625.82,576.77,586.73,550.72L586.73,550.72z"
		/>
</g>
</svg>
